STARTFONT 2.1
FONT HAN-GB2312
SIZE 20 72 72
FONTBOUNDINGBOX 8 20 0 0
STARTPROPERTIES 1
BITCOUNT 8
ENDPROPERTIES
CHARS 27
STARTCHAR  00A4
ENCODING  164
SWIDTH  1000 0
DWIDTH  12 0
BBX  10 10 1 2
BITMAP
10A0100000000010A010
A0FFE080F0F080E0FFA0
20E0FFFFFFFFFFFFC010
0080FFA01010A0FFC000
00F0FF10000010FFFF00
00F0FF10000010FFF000
0080FFA01010A0FF8000
10E0FFFFFFFFFFFFE010
A0FFE080F0F080E0FFA0
10A0100000000010A010
ENDCHAR
STARTCHAR  00A7
ENCODING  167
SWIDTH  1000 0
DWIDTH  8 0
BBX  8 14 0 0
BITMAP
0020C0F0F0A01000
00C0FFFFFFFFA000
00FFFF2010E0F000
00E0FF6000102000
0060FFFFE0600000
20F0FFA0FFFFC000
80FFA00020E0FF60
60FFE03000A0FF80
00C0FFFFC0FFFF30
000060E0FFFF6000
0020100080FFE000
00F0E01020FFFF00
00A0FFFFFFFFC000
0010A0F0F0C02000
ENDCHAR
STARTCHAR  00A8
ENCODING  168
SWIDTH  1000 0
DWIDTH  8 0
BBX  6 17 1 0
BITMAP
FFFF0000FFFF
F0F00000F0F0
000000000000
FFFFFFFFFFFF
FFFFF0F0F0F0
FFFF00000000
FFFF00000000
FFFF00000000
FFFF00000000
FFFFFFFFFFFF
FFFFF0F0F0F0
FFFF00000000
FFFF00000000
FFFF00000000
FFFF00000000
FFFFF0F0F0F0
FFFFFFFFFFFF
ENDCHAR
STARTCHAR  00B0
ENCODING  176
SWIDTH  1000 0
DWIDTH  8 0
BBX  6 5 1 9
BITMAP
10A0F0F0A010
C0A01010A0C0
FF10000010FF
C0A01010A0C0
10A0F0F0A020
ENDCHAR
STARTCHAR  00B1
ENCODING  177
SWIDTH  1000 0
DWIDTH  10 0
BBX  8 10 1 0
BITMAP
000000FFFF000000
000000FFFF000000
000000FFFF000000
F0F0F0FFFFF0F0F0
FFFFFFFFFFFFFFFF
000000FFFF000000
000000FFFF000000
0000000000000000
F0F0F0F0F0F0F0F0
FFFFFFFFFFFFFFFF
ENDCHAR
STARTCHAR  00B7
ENCODING  183
SWIDTH  1000 0
DWIDTH  7 0
BBX  3 3 2 6
BITMAP
60E040
F0FFE0
A0F060
ENDCHAR
STARTCHAR  00D7
ENCODING  215
SWIDTH  1000 0
DWIDTH  8 0
BBX  6 14 1 0
BITMAP
FFFF0000FFFF
FFFF0000FFFF
FFFF0000FFFF
FFFF0000FFFF
FFFF0000FFFF
FFFF0000FFFF
F0FF4010FFFF
C0FFFFFFFFFF
20C0F0E0FFFF
00000000FFFF
00000000FFFF
00000000FFFF
00000000FFFF
00000000FFFF
ENDCHAR
STARTCHAR  00E0
ENCODING  224
SWIDTH  1000 0
DWIDTH  8 0
BBX  6 10 1 0
BITMAP
10A0F0F0A010
A0FFFFFFFFA0
E0E02030FFF0
00000000FFFF
30E0FFFFFFFF
E0FFFFF0FFFF
FFFF2000FFFF
FFF00010FFFF
E0FFC0E0FFFF
40E0F080FFFF
ENDCHAR
STARTCHAR  00E1
ENCODING  225
SWIDTH  1000 0
DWIDTH  8 0
BBX  6 14 1 0
BITMAP
00000010FFFF
002080F0FFE0
30F0FFF0A030
C0FF60000000
F0C080F0E040
FFF0FFFFFFE0
FFFF3030FFFF
FFFF0000FFFF
FFFF0000FFFF
FFFF0000FFFF
FFFF0000FFFF
FFFF3030FFF0
A0FFFFFFFFA0
10A0F0F0A010
ENDCHAR
STARTCHAR  00E8
ENCODING  232
SWIDTH  1000 0
DWIDTH  8 0
BBX  6 10 1 0
BITMAP
FFFF0000FFFF
FFFF0020FFFF
FFFF00A0FFFF
FFFF10F0FFFF
FFFF80F0FFFF
FFFFF080FFFF
FFFFF010FFFF
FFFFA000FFFF
FFFF2000FFFF
FFFF0000FFFF
ENDCHAR
STARTCHAR  00E9
ENCODING  233
SWIDTH  1000 0
DWIDTH  8 0
BBX  6 14 1 0
BITMAP
10FF6060FF00
00E0FFFFE000
0060F0F06000
000000000000
FFFF0000FFFF
FFFF0020FFFF
FFFF00A0FFFF
FFFF10F0FFFF
FFFF80F0FFFF
FFFFF080FFFF
FFFFF010FFFF
FFFFA000FFFF
FFFF2000FFFF
FFFF0000FFFF
ENDCHAR
STARTCHAR  00EA
ENCODING  234
SWIDTH  1000 0
DWIDTH  8 0
BBX  7 10 1 0
BITMAP
FFFF000080F080
FFFF0010FFFF80
FFFF0040FFA000
FFFF00A0FF6000
FFFFFFFFFF3000
FFFFF0FFF00000
FFFF00C0FF4000
FFFF0060FFA000
FFFF0010F0F010
FFFF0000A0FF60
ENDCHAR
STARTCHAR  00EC
ENCODING  236
SWIDTH  1000 0
DWIDTH  10 0
BBX  8 10 1 0
BITMAP
FFFF20000020FFFF
FFFF80000080FFFF
FFFFE00000E0FFFF
FFFFFF3040FFFFFF
FFFFF0A0A0F0FFFF
FFFFA0F0F0A0FFFF
FFFF30FFFF30FFFF
FFFF00E0E000FFFF
FFFF00404000FFFF
FFFF00000000FFFF
ENDCHAR
STARTCHAR  00ED
ENCODING  237
SWIDTH  1000 0
DWIDTH  8 0
BBX  6 10 1 0
BITMAP
FFFF0000FFFF
FFFF0000FFFF
FFFF0000FFFF
FFFF0000FFFF
FFFFF0F0FFFF
FFFFFFFFFFFF
FFFF0000FFFF
FFFF0000FFFF
FFFF0000FFFF
FFFF0000FFFF
ENDCHAR
STARTCHAR  00F2
ENCODING  242
SWIDTH  1000 0
DWIDTH  8 0
BBX  6 10 1 0
BITMAP
FFFFFFFFFFFF
F0F0FFFFF0F0
0000FFFF0000
0000FFFF0000
0000FFFF0000
0000FFFF0000
0000FFFF0000
0000FFFF0000
0000FFFF0000
0000FFFF0000
ENDCHAR
STARTCHAR  00F3
ENCODING  243
SWIDTH  1000 0
DWIDTH  7 0
BBX  8 14 0 -4
BITMAP
C0FF600000F0FF10
80FFA00020FFE000
20FFE00060FFA000
00E0FF2080FF6000
0080FF60C0FF1000
0040FFA0F0E00000
0000F0FFFFA00000
0000A0FFFF600000
000040FFFF200000
000010FFE0000000
000040FFA0000000
0000A0FF60000000
00E0FFFF20000000
00FFE06000000000
ENDCHAR
STARTCHAR  00F7
ENCODING  247
SWIDTH  1000 0
DWIDTH  8 0
BBX  6 10 1 0
BITMAP
FFFF0000FFFF
FFFF0000FFFF
FFFF0000FFFF
FFFF0000FFFF
FFFF3010FFFF
E0FFFFFFFFFF
30A0C0A0FFFF
00000000FFFF
00000000FFFF
00000000FFFF
ENDCHAR
STARTCHAR  00F9
ENCODING  249
SWIDTH  1000 0
DWIDTH  12 0
BBX  11 13 1 -3
BITMAP
FFFF0000FFFF0000FFFF00
FFFF0000FFFF0000FFFF00
FFFF0000FFFF0000FFFF00
FFFF0000FFFF0000FFFF00
FFFF0000FFFF0000FFFF00
FFFF0000FFFF0000FFFF00
FFFF0000FFFF0000FFFF00
FFFF0000FFFF0000FFFF00
FFFFE0E0FFFFE0E0FFFFE0
FFFFFFFFFFFFFFFFFFFFFF
000000000000000000FFFF
000000000000000000FFFF
0000000000000000003040
ENDCHAR
STARTCHAR  00FA
ENCODING  250
SWIDTH  1000 0
DWIDTH  9 0
BBX  8 10 0 0
BITMAP
FFFFFFFF00000000
F0F0FFFF00000000
0000FFFF00000000
0000FFFF00000000
0000FFFFFFFFC030
0000FFFFF0FFFFE0
0000FFFF0020FFFF
0000FFFF0020FFFF
0000FFFFF0FFFFE0
0000FFFFFFFFC030
ENDCHAR
STARTCHAR  00FC
ENCODING  252
SWIDTH  1000 0
DWIDTH  8 0
BBX  6 10 1 0
BITMAP
FFFF00000000
FFFF00000000
FFFF00000000
FFFF00000000
FFFFFFFFC030
FFFFF0FFFFE0
FFFF0020FFFF
FFFF0010FFFF
FFFFE0E0FFE0
FFFFFFFFC030
ENDCHAR
STARTCHAR  2014
ENCODING  8212
SWIDTH  1000 0
DWIDTH  13 0
BBX  11 2 1 5
BITMAP
FFFFFFFFFFFFFFFFFFFFFF
3030303030303030303030
ENDCHAR
STARTCHAR  2018
ENCODING  8216
SWIDTH  1000 0
DWIDTH  4 0
BBX  2 5 1 10
BITMAP
0010
00A0
A0FF
FFFF
FFFF
ENDCHAR
STARTCHAR  2019
ENCODING  8217
SWIDTH  1000 0
DWIDTH  4 0
BBX  2 5 1 9
BITMAP
FFFF
FFFF
FFA0
A000
1000
ENDCHAR
STARTCHAR  201C
ENCODING  8220
SWIDTH  1000 0
DWIDTH  8 0
BBX  6 5 1 10
BITMAP
001000000010
00A0000000A0
A0FF0000A0FF
FFFF0000FFFF
FFFF0000FFFF
ENDCHAR
STARTCHAR  201D
ENCODING  8221
SWIDTH  1000 0
DWIDTH  8 0
BBX  6 5 1 9
BITMAP
FFFF0000FFFF
FFFF0000FFFF
FFA00000FFA0
A0000000A000
100000001000
ENDCHAR
STARTCHAR  2026
ENCODING  8230
SWIDTH  1000 0
DWIDTH  11 0
BBX  9 2 1 0
BITMAP
F0F00000F0F000F0F0
FFFF0000FFFF00FFFF
ENDCHAR
STARTCHAR  2030
ENCODING  8240
SWIDTH  1000 0
DWIDTH  18 0
BBX  16 14 1 0
BITMAP
60F0F060000000F0A000000000000000
E0FFFFE0000060FF3000000000000000
FFFFFFFF0000C0C00000000000000000
FFFFFFFF0020FF400000000000000000
FFFFFFFF0080E0000000000000000000
FFFFFFFF00E060000000000000000000
E0FFFFE030F010002000000000101000
40E0E040A08060F0FFF0600080FFFF80
00000000F020F0FF60FFF000F0FFFFF0
00000060A000FFFF00FFFF00FFFFFFFF
000000C03000FFFF00FFFF00FFFFFFFF
000020C00000FFFF10FFFF00FFFFFFFF
000080600000E0FFFFFFE000F0FFFFF0
0000C000000040E0FFE0400060F0F060
ENDCHAR
ENDFONT
